<svg width="161" height="16" viewBox="0 0 161 16" fill="none" xmlns="http://www.w3.org/2000/svg">
<path d="M5.08777 12.0118L3.79961 15.3605H0.115234L6.05936 0.601166H10.6525L16.9023 15.3605H13.0296L11.6651 12.0118H5.08777ZM10.6553 9.14072C9.29069 5.75928 8.61385 4.03446 8.25906 2.90731H8.23723C7.907 3.99898 7.12373 6.25599 6.01569 9.14072H10.6553Z" fill="#A68B80"/>
<path d="M34.8376 9.13254H26.5982V12.4921H35.7573L35.3452 15.3605H23.0176V0.601166H35.2824V3.46952H26.5982V6.26691H34.8376V9.13254Z" fill="#A68B80"/>
<path d="M45.0369 10.9502C45.4599 12.2247 46.4779 13.0599 48.9287 13.0599C51.2212 13.0599 51.8844 12.3612 51.8844 11.4087C51.8844 10.3907 51.2048 9.81761 48.0963 9.29088C42.9736 8.41481 42.043 6.75003 42.043 4.77138C42.043 1.82388 44.8813 0.317383 48.3692 0.317383C53.4345 0.317383 54.81 2.92101 54.9765 4.63765H51.3904C51.1802 3.90624 50.689 2.92646 48.2546 2.92646C46.5489 2.92646 45.6837 3.47231 45.6837 4.42479C45.6837 5.27629 46.2923 5.70476 49.0624 6.20419C54.6708 7.20852 55.5496 8.90335 55.5496 11.043C55.5496 13.6002 53.541 15.6826 48.5903 15.6826C43.9725 15.6826 41.8956 13.6221 41.4453 10.9639L45.0369 10.9502Z" fill="#A68B80"/>
<path d="M66.0682 3.45586H60.8828V0.601166H74.8397V3.45586H69.6543V15.3605H66.0682V3.45586Z" fill="#A68B80"/>
<path d="M84.776 0.601273V8.94705C84.776 12.0856 86.4135 12.8798 88.2366 12.8798C90.1661 12.8798 91.457 12.0474 91.457 8.94705V0.601273H95.0404V9.06168C95.0404 13.5402 92.5213 15.6717 88.1356 15.6717C83.8945 15.6717 81.1953 13.7231 81.1953 9.14082V0.598541L84.776 0.601273Z" fill="#A68B80"/>
<path d="M102.912 15.3605V0.601166H107.156C111.302 6.9301 112.955 9.23351 113.881 10.9884H113.924C113.78 9.4382 113.799 6.67628 113.799 4.24733V0.601166H117.074V15.3605H113.106C111.714 13.1771 106.992 5.82751 106.113 4.14088H106.072C106.195 5.96397 106.195 8.06269 106.195 10.6909V15.3687L102.912 15.3605Z" fill="#A68B80"/>
<path d="M125.145 15.3605V0.601166H129.386C133.531 6.9301 135.188 9.23351 136.113 10.9884H136.154C136.009 9.4382 136.031 6.67628 136.031 4.24733V0.601166H139.306V15.3605H135.338C133.946 13.1771 129.225 5.82751 128.346 4.14088H128.302C128.428 5.96397 128.428 8.06269 128.428 10.6909V15.3687L125.145 15.3605Z" fill="#A68B80"/>
<path d="M159.192 9.13254H150.956V12.4921H160.115L159.703 15.3605H147.375V0.601166H159.637V3.46952H150.956V6.26691H159.192V9.13254Z" fill="#A68B80"/>
</svg>
