<svg width="161" height="16" viewBox="0 0 161 16" fill="none" xmlns="http://www.w3.org/2000/svg">
<path d="M5.09363 12.0117L3.80547 15.3604H0.121094L6.06521 0.601074H10.6584L16.9082 15.3604H13.0355L11.6709 12.0117H5.09363ZM10.6611 9.14063C9.29655 5.75919 8.61971 4.03437 8.26492 2.90722H8.24309C7.91286 3.99889 7.12959 6.2559 6.02155 9.14063H10.6611Z" fill="#A68B80"/>
<path d="M34.8435 9.13245H26.6041V12.492H35.7632L35.3511 15.3604H23.0234V0.601074H35.2883V3.46943H26.6041V6.26682H34.8435V9.13245Z" fill="#A68B80"/>
<path d="M45.0428 10.9502C45.4658 12.2247 46.4838 13.0599 48.9345 13.0599C51.227 13.0599 51.8902 12.3612 51.8902 11.4087C51.8902 10.3907 51.2107 9.81761 48.1021 9.29088C42.9795 8.41481 42.0489 6.75003 42.0489 4.77138C42.0489 1.82388 44.8872 0.317383 48.3751 0.317383C53.4404 0.317383 54.8159 2.92101 54.9824 4.63765H51.3962C51.1861 3.90624 50.6949 2.92646 48.2604 2.92646C46.5547 2.92646 45.6896 3.47231 45.6896 4.42479C45.6896 5.27629 46.2982 5.70476 49.0683 6.20419C54.6767 7.20852 55.5555 8.90335 55.5555 11.043C55.5555 13.6002 53.5468 15.6826 48.5961 15.6826C43.9784 15.6826 41.9015 13.6221 41.4512 10.9639L45.0428 10.9502Z" fill="#A68B80"/>
<path d="M66.0741 3.45577H60.8887V0.601074H74.8456V3.45577H69.6602V15.3604H66.0741V3.45577Z" fill="#A68B80"/>
<path d="M84.7818 0.601365V8.94714C84.7818 12.0857 86.4193 12.8799 88.2424 12.8799C90.1719 12.8799 91.4628 12.0475 91.4628 8.94714V0.601365H95.0462V9.06178C95.0462 13.5403 92.5272 15.6718 88.1414 15.6718C83.9003 15.6718 81.2012 13.7232 81.2012 9.14091V0.598633L84.7818 0.601365Z" fill="#A68B80"/>
<path d="M102.918 15.3604V0.601074H107.162C111.307 6.93001 112.961 9.23342 113.886 10.9883H113.93C113.785 9.43811 113.805 6.67619 113.805 4.24723V0.601074H117.08V15.3604H113.111C111.72 13.1771 106.998 5.82742 106.119 4.14079H106.078C106.201 5.96388 106.201 8.0626 106.201 10.6908V15.3686L102.918 15.3604Z" fill="#A68B80"/>
<path d="M125.15 15.3604V0.601074H129.392C133.537 6.93001 135.194 9.23342 136.119 10.9883H136.16C136.015 9.43811 136.037 6.67619 136.037 4.24723V0.601074H139.312V15.3604H135.344C133.952 13.1771 129.231 5.82742 128.352 4.14079H128.308C128.434 5.96388 128.434 8.0626 128.434 10.6908V15.3686L125.15 15.3604Z" fill="#A68B80"/>
<path d="M159.198 9.13245H150.962V12.492H160.121L159.708 15.3604H147.381V0.601074H159.643V3.46943H150.962V6.26682H159.198V9.13245Z" fill="#A68B80"/>
</svg>
