<svg width="58" height="60" viewBox="0 0 58 60" fill="none" xmlns="http://www.w3.org/2000/svg">
<path d="M57.1224 40.586H56.7461V40.5818C56.8704 40.5843 56.9964 40.586 57.1224 40.586Z" fill="#A68B80"/>
<path d="M56.7439 40.583V40.5826L56.7435 40.5821V40.5817L56.7422 40.5795V40.5791" fill="#A68B80"/>
<path d="M21.4634 60C16.0643 57.9278 7.98759 56.0974 7.9961 43.6466C7.9961 43.0575 8.12295 42.1823 8.31109 41.2016C9.15562 36.8129 11.2814 32.5843 13.8678 28.9423C19.4654 21.0469 23.0384 9.94715 21.9232 9.63499e-05C21.9232 9.63499e-05 31.969 -0.184645 37.2694 15.6247C42.5699 31.4341 50.7547 54.1274 50.7547 54.1274H41.7305L38.7397 47.7049C38.7397 47.7049 37.7181 43.0336 30.8324 43.799C28.4547 44.0629 22.915 44.8564 20.0204 44.595C19.9557 44.589 19.8927 44.5814 19.8306 44.572C17.3344 44.1872 16.8339 40.8176 19.0303 39.5704C22.2126 37.763 26.0692 39.269 28.7015 39.7406C31.9954 40.3323 32.1554 37.5782 31.7774 36.6537C31.3994 35.7291 31.8626 34.4096 31.8626 34.4096C33.9058 33.279 33.2571 32.1109 33.2571 32.1109L32.4279 30.9463C33.9339 30.742 34.0114 29.4479 34.0114 29.4479L33.1523 28.2757C32.2916 27.1008 33.4639 26.2401 33.4639 26.2401C37.3111 24.9188 34.2974 23.0689 34.2974 23.0689C29.8653 19.701 30.3523 17.0856 30.3523 17.0856C30.5098 9.81945 25.727 7.41271 25.727 7.41271C24.8756 22.879 19.8527 28.0151 17.3898 32.357C16.5921 33.7608 12.389 39.962 12.7457 44.7201C12.7866 45.2729 12.8473 45.8439 12.9279 46.433C14.4629 57.721 21.4745 60.0043 21.4634 60Z" fill="#A68B80"/>
<path d="M17.7295 2.87671C17.7295 2.87671 20.8625 12.8834 12.1107 24.7672C7.16526 31.48 0.447337 44.3327 3.43554 50.0818C3.43554 50.0818 -1.8317 44.2518 2.75447 33.2764C4.47588 29.1576 6.37352 26.8121 9.52433 21.6181C12.2665 17.0983 16.9489 8.84035 17.7295 2.87671Z" fill="#A68B80"/>
</svg>
