<svg width="74" height="78" viewBox="0 0 74 78" fill="none" xmlns="http://www.w3.org/2000/svg">
<path d="M73.1161 52.7618H72.627V52.7563C72.7885 52.7596 72.9523 52.7618 73.1161 52.7618Z" fill="#A68B80"/>
<path d="M72.6253 52.7581V52.7575L72.6247 52.7569V52.7564L72.623 52.7536V52.753" fill="#A68B80"/>
<path d="M26.7615 78C19.7425 75.3062 9.24285 72.9267 9.25391 56.7406C9.25391 55.9747 9.41882 54.837 9.66341 53.562C10.7613 47.8568 13.5248 42.3596 16.8871 37.6249C24.1639 27.361 28.8089 12.9313 27.3591 0.000125255C27.3591 0.000125255 40.4187 -0.240038 47.3092 20.3122C54.1998 40.8644 64.84 70.3657 64.84 70.3657H53.1086L49.2206 62.0164C49.2206 62.0164 47.8925 55.9437 38.9412 56.9387C35.85 57.2818 28.6485 58.3133 24.8855 57.9735C24.8014 57.9657 24.7195 57.9558 24.6387 57.9436C21.3938 57.4434 20.743 53.0629 23.5984 51.4415C27.7354 49.0919 32.7489 51.0497 36.171 51.6628C40.453 52.432 40.661 48.8517 40.1696 47.6498C39.6783 46.4479 40.2803 44.7324 40.2803 44.7324C42.9365 43.2627 42.0932 41.7442 42.0932 41.7442L41.0152 40.2302C42.973 39.9646 43.0737 38.2823 43.0737 38.2823L41.957 36.7584C40.8381 35.231 42.3621 34.1121 42.3621 34.1121C47.3635 32.3945 43.4456 29.9895 43.4456 29.9895C37.6839 25.6112 38.317 22.2113 38.317 22.2113C38.5217 12.7653 32.304 9.63653 32.304 9.63653C31.1973 29.7427 24.6675 36.4197 21.4657 42.0641C20.4287 43.8891 14.9647 51.9506 15.4284 58.1362C15.4816 58.8548 15.5605 59.5971 15.6653 60.3629C17.6607 75.0372 26.7759 78.0055 26.7615 78Z" fill="#A68B80"/>
<path d="M21.9058 3.73984C21.9058 3.73984 25.9786 16.7485 14.6013 32.1975C8.17226 40.9242 -0.56104 57.6326 3.32362 65.1065C3.32362 65.1065 -3.52379 57.5275 2.43823 43.2594C4.67606 37.905 7.14299 34.8559 11.239 28.1037C14.8039 22.228 20.8909 11.4926 21.9058 3.73984Z" fill="#A68B80"/>
</svg>
